<?xml version="1.0" encoding="utf-8"?>
<!DOCTYPE svg PUBLIC "-//W3C//DTD SVG 20010904//EN" "http://www.w3.org/TR/2001/REC-SVG-20010904/DTD/svg10.dtd">
<svg version="1.0" xmlns="http://www.w3.org/2000/svg" width="514pt" height="514pt" viewBox="0 0 514 514" preserveAspectRatio="xMidYMid meet">
<g fill="#F24C4CFE">
<path d="M 247.72 448.60 C 232.05 439.66 193.76 410.62 168.50 388.51 C 134.64 358.86 104.58 328.47 84.48 303.57 C 51.65 262.89 37.51 227.50 37.70 186.50 C 37.97 127.71 70.66 79.97 120.53 65.52 C 137.86 60.50 162.35 60.08 179.35 64.50 C 209.43 72.34 233.20 92.47 248.99 123.49 C 251.58 128.57 254.32 134.82 255.07 137.37 C 256.38 141.80 258.00 143.58 258.00 140.58 C 258.00 138.22 264.34 123.96 268.74 116.44 C 280.72 95.95 299.12 78.59 317.44 70.48 C 345.57 58.04 381.41 58.43 409.64 71.47 C 426.72 79.36 442.66 93.20 453.73 109.76 C 469.26 132.97 476.32 157.11 476.31 187.00 C 476.30 241.10 453.12 284.08 390.03 347.00 C 360.83 376.11 330.52 402.43 298.50 426.47 C 277.70 442.08 260.52 453.00 256.77 453.00 C 256.04 453.00 251.97 451.02 247.72 448.60ZM 90.17 170.94 C 114.12 162.87 139.00 130.69 139.00 107.78 C 139.00 89.90 124.06 85.82 103.43 98.06 C 95.34 102.85 81.31 117.01 75.74 126.01 C 56.85 156.52 64.28 179.66 90.17 170.94Z"/></g>
<g fill="#FD8282FF">
<path d="M 73.50 171.60 C 57.54 164.55 65.41 133.29 89.01 110.00 C 101.39 97.78 113.64 91.11 123.85 91.03 C 147.94 90.85 142.43 128.09 114.36 155.10 C 99.55 169.36 83.29 175.92 73.50 171.60Z"/></g>
</svg>
