<svg width="32" height="24" viewBox="0 0 32 24" fill="none" xmlns="http://www.w3.org/2000/svg">
<g clip-path="url(#clip0_270_67481)">
<rect width="32" height="24" fill="white"/>
<path fill-rule="evenodd" clip-rule="evenodd" d="M0 0V24H32V0H0Z" fill="#F7FCFF"/>
<mask id="mask0_270_67481" style="mask-type:luminance" maskUnits="userSpaceOnUse" x="0" y="0" width="32" height="24">
<path fill-rule="evenodd" clip-rule="evenodd" d="M0 0V24H32V0H0Z" fill="white"/>
</mask>
<g mask="url(#mask0_270_67481)">
<path fill-rule="evenodd" clip-rule="evenodd" d="M0 0V8H32V0H0Z" fill="#E31D1C"/>
<path fill-rule="evenodd" clip-rule="evenodd" d="M0 16V24H32V16H0Z" fill="#3D58DB"/>
<rect x="10.0765" y="6.39732" width="11.4" height="4" fill="#E31D1C"/>
<path d="M20.7802 8.95982C20.7972 9.72872 20.8027 11.0699 20.8026 12.3612C20.8025 13.1951 20.8009 13.9982 20.7987 14.5926C20.7976 14.8897 20.7966 15.1348 20.7958 15.3055C20.7954 15.3906 20.795 15.4574 20.7948 15.5028C20.7947 15.5136 20.7939 15.5237 20.7938 15.5321V15.535C20.7894 15.5616 20.7818 15.6033 20.7704 15.6581C20.7474 15.7681 20.7089 15.9301 20.6473 16.1258C20.5235 16.5191 20.3098 17.0404 19.955 17.5585C19.2605 18.5723 17.9994 19.6151 15.6493 19.6151C13.3029 19.615 12.1034 18.5742 11.4647 17.5702C11.1368 17.0545 10.9494 16.5345 10.8446 16.1415C10.7925 15.946 10.7608 15.7846 10.743 15.6747C10.7342 15.6199 10.7286 15.5782 10.7255 15.5516C10.7251 15.5482 10.7248 15.5448 10.7245 15.5419C10.7243 15.5302 10.7238 15.5127 10.7235 15.4901C10.723 15.445 10.7216 15.3786 10.7206 15.2938C10.7185 15.1242 10.7163 14.8802 10.7128 14.5848C10.7057 13.9941 10.6958 13.1958 10.6864 12.3651C10.6721 11.0953 10.6601 9.75336 10.6542 8.95982H20.7802Z" fill="#F7FCFF" stroke="#E31D1C" stroke-width="1.125"/>
<mask id="mask1_270_67481" style="mask-type:luminance" maskUnits="userSpaceOnUse" x="10" y="8" width="12" height="13">
<path d="M20.7802 8.95982C20.7972 9.72872 20.8027 11.0699 20.8026 12.3612C20.8025 13.1951 20.8009 13.9982 20.7987 14.5926C20.7976 14.8897 20.7966 15.1348 20.7958 15.3055C20.7954 15.3906 20.795 15.4574 20.7948 15.5028C20.7947 15.5136 20.7939 15.5237 20.7938 15.5321V15.535C20.7894 15.5616 20.7818 15.6033 20.7704 15.6581C20.7474 15.7681 20.7089 15.9301 20.6473 16.1258C20.5235 16.5191 20.3098 17.0404 19.955 17.5585C19.2605 18.5723 17.9994 19.6151 15.6493 19.6151C13.3029 19.615 12.1034 18.5742 11.4647 17.5702C11.1368 17.0545 10.9494 16.5345 10.8446 16.1415C10.7925 15.946 10.7608 15.7846 10.743 15.6747C10.7342 15.6199 10.7286 15.5782 10.7255 15.5516C10.7251 15.5482 10.7248 15.5448 10.7245 15.5419C10.7243 15.5302 10.7238 15.5127 10.7235 15.4901C10.723 15.445 10.7216 15.3786 10.7206 15.2938C10.7185 15.1242 10.7163 14.8802 10.7128 14.5848C10.7057 13.9941 10.6958 13.1958 10.6864 12.3651C10.6721 11.0953 10.6601 9.75336 10.6542 8.95982H20.7802Z" fill="white" stroke="white" stroke-width="1.125"/>
</mask>
<g mask="url(#mask1_270_67481)">
<path fill-rule="evenodd" clip-rule="evenodd" d="M10.4984 9.03989H12.6078V11.1818H10.4984V9.03989ZM14.7172 11.1818H12.6078V13.3237H10.4984V15.4656H12.6078V17.6075H10.4984V19.7494H12.6078V17.6075H14.7172V19.7494H16.8265V17.6075H18.9359V19.7494H21.0453V17.6075H18.9359V15.4656H21.0453V13.3237H18.9359V11.1818H21.0453V9.03989H18.9359V11.1818H16.8265V9.03989H14.7172V11.1818ZM14.7172 13.3237V11.1818H16.8265V13.3237H14.7172ZM14.7172 15.4656V13.3237H12.6078V15.4656H14.7172ZM16.8265 15.4656V17.6075H14.7172V15.4656H16.8265ZM16.8265 15.4656V13.3237H18.9359V15.4656H16.8265Z" fill="#F50100"/>
</g>
<path fill-rule="evenodd" clip-rule="evenodd" d="M10.453 8.16264C10.453 8.16264 11.1055 7.81414 11.6619 7.63455C12.2184 7.45495 12.6583 7.35682 12.6583 7.35682L11.8303 4.30473L10.172 3.68515L9.23279 5.23325L10.453 8.16264Z" fill="#56C6F5" stroke="white" stroke-width="0.5"/>
<path d="M10.181 6.49079L10.3716 6.39893C10.5684 6.81985 10.8278 6.94986 11.1833 6.81718C11.5465 6.68164 11.6945 6.42535 11.6423 6.01903L11.8514 5.9913C11.9163 6.49567 11.7129 6.84772 11.2561 7.01822C10.7916 7.19156 10.4221 7.00635 10.181 6.49079Z" fill="white"/>
<path fill-rule="evenodd" clip-rule="evenodd" d="M10.6323 5.54186L10.4501 5.65221C10.4098 5.67663 10.3597 5.64154 10.3688 5.59531L10.4102 5.38637L10.2236 5.28378C10.1823 5.26108 10.1876 5.20012 10.2322 5.18494L10.4339 5.11632L10.4294 4.90337C10.4284 4.85625 10.4838 4.83039 10.5193 4.86143L10.6795 5.00175L10.8617 4.89139C10.902 4.86697 10.9522 4.90207 10.943 4.9483L10.9016 5.15724L11.0883 5.25983C11.1296 5.28253 11.1242 5.34349 11.0796 5.35867L10.878 5.42729L10.8825 5.64024C10.8835 5.68736 10.828 5.71322 10.7925 5.68217L10.6323 5.54186Z" fill="#FECA00"/>
<path fill-rule="evenodd" clip-rule="evenodd" d="M14.5407 7.0758C14.5407 7.0758 15.0971 7.02614 15.6817 7.0375C16.2664 7.04886 16.7609 7.05301 16.7609 7.05301L17.0465 4.04353L15.7942 2.91215L14.4021 4.07013L14.5407 7.0758Z" fill="#56C6F5" stroke="white" stroke-width="0.5"/>
<path fill-rule="evenodd" clip-rule="evenodd" d="M15.7501 6.58482C16.2325 6.58482 16.2787 6.06386 16.2787 5.70898C16.1553 5.51215 16.1802 5.37129 15.7848 5.37129C15.3895 5.37129 15.3444 5.49075 15.229 5.70898C15.229 6.06386 15.2678 6.58482 15.7501 6.58482Z" fill="#FECA00"/>
<path fill-rule="evenodd" clip-rule="evenodd" d="M16.293 5.11287C16.7753 5.11287 16.8215 4.59191 16.8215 4.23703C16.6982 4.04019 16.723 3.89934 16.3277 3.89934C15.9323 3.89934 15.8872 4.0188 15.7719 4.23703C15.7719 4.59191 15.8106 5.11287 16.293 5.11287Z" fill="#FECA00"/>
<path fill-rule="evenodd" clip-rule="evenodd" d="M15.2383 5.11287C15.7206 5.11287 15.7668 4.59191 15.7668 4.23703C15.6435 4.04019 15.6683 3.89934 15.273 3.89934C14.8776 3.89934 14.8325 4.0188 14.7172 4.23703C14.7172 4.59191 14.7559 5.11287 15.2383 5.11287Z" fill="#FECA00"/>
<path d="M13.1287 2.85782L14.4919 3.82559L14.5857 3.89297L14.5964 4.00821L14.8484 6.93301L14.8708 7.19278L14.6091 7.20352H14.6082C14.6072 7.20356 14.6053 7.20441 14.6033 7.2045C14.5992 7.20467 14.5933 7.20415 14.5857 7.2045C14.57 7.20522 14.5471 7.20693 14.5183 7.2084C14.4603 7.21137 14.3782 7.2159 14.2849 7.22208C14.0971 7.23451 13.8665 7.25302 13.6814 7.27872C13.5046 7.30329 13.2594 7.3638 13.0505 7.4213C12.9478 7.44958 12.856 7.47691 12.7908 7.49649C12.7584 7.50621 12.7323 7.51444 12.7146 7.51993C12.7058 7.52265 12.6986 7.52437 12.6941 7.52579C12.6919 7.52646 12.6903 7.52741 12.6892 7.52774H12.6882L12.4451 7.60489L12.3728 7.35977L11.5056 4.41641L11.4646 4.27676L11.5662 4.17227L12.8044 2.88809L12.9539 2.7338L13.1287 2.85782Z" fill="#2E42A5" stroke="white" stroke-width="0.5"/>
<mask id="mask2_270_67481" style="mask-type:luminance" maskUnits="userSpaceOnUse" x="11" y="2" width="5" height="6">
<path d="M13.1287 2.85782L14.4919 3.82559L14.5857 3.89297L14.5964 4.00821L14.8484 6.93301L14.8708 7.19278L14.6091 7.20352H14.6082C14.6072 7.20356 14.6053 7.20441 14.6033 7.2045C14.5992 7.20467 14.5933 7.20415 14.5857 7.2045C14.57 7.20522 14.5471 7.20693 14.5183 7.2084C14.4603 7.21137 14.3782 7.2159 14.2849 7.22208C14.0971 7.23451 13.8665 7.25302 13.6814 7.27872C13.5046 7.30329 13.2594 7.3638 13.0505 7.4213C12.9478 7.44958 12.856 7.47691 12.7908 7.49649C12.7584 7.50621 12.7323 7.51444 12.7146 7.51993C12.7058 7.52265 12.6986 7.52437 12.6941 7.52579C12.6919 7.52646 12.6903 7.52741 12.6892 7.52774H12.6882L12.4451 7.60489L12.3728 7.35977L11.5056 4.41641L11.4646 4.27676L11.5662 4.17227L12.8044 2.88809L12.9539 2.7338L13.1287 2.85782Z" fill="white" stroke="white" stroke-width="0.5"/>
</mask>
<g mask="url(#mask2_270_67481)">
<path d="M12.4364 6.63784L12.1859 6.04776C12.7239 5.81227 13.6328 5.66777 14.5891 5.61127L14.6259 6.25275C13.7368 6.30528 12.8958 6.43676 12.4364 6.63784Z" fill="#C51918"/>
<path d="M12.0137 5.21048L11.7632 4.6204C12.3012 4.3849 13.4576 4.19426 14.414 4.13776L14.4507 4.77924C13.5617 4.83177 12.4731 5.00939 12.0137 5.21048Z" fill="#C51918"/>
</g>
<path d="M18.2786 2.85782L16.9163 3.82559L16.8215 3.89297L16.8118 4.00821L16.5588 6.93301L16.5364 7.19278L16.7981 7.20352H16.7991C16.8001 7.20356 16.8019 7.20441 16.804 7.2045C16.8079 7.20467 16.8139 7.20415 16.8215 7.2045C16.8373 7.20522 16.8609 7.20692 16.8899 7.2084C16.9478 7.21137 17.0291 7.21591 17.1223 7.22208C17.3103 7.23452 17.5416 7.25298 17.7268 7.27872C17.9037 7.30332 18.1488 7.36379 18.3577 7.4213C18.4604 7.44958 18.5512 7.47691 18.6165 7.49649C18.6489 7.50623 18.6748 7.51442 18.6926 7.51993C18.7014 7.52265 18.7086 7.52436 18.7131 7.52579C18.7152 7.52645 18.7169 7.52739 18.718 7.52774H18.72L18.969 7.60684L19.0364 7.35489L19.8323 4.40567L19.8684 4.27383L19.7756 4.17227L18.6077 2.89297L18.4592 2.72989L18.2786 2.85782Z" fill="#2E42A5" stroke="white" stroke-width="0.5"/>
<mask id="mask3_270_67481" style="mask-type:luminance" maskUnits="userSpaceOnUse" x="16" y="2" width="5" height="6">
<path d="M18.2786 2.85782L16.9163 3.82559L16.8215 3.89297L16.8118 4.00821L16.5588 6.93301L16.5364 7.19278L16.7981 7.20352H16.7991C16.8001 7.20356 16.8019 7.20441 16.804 7.2045C16.8079 7.20467 16.8139 7.20415 16.8215 7.2045C16.8373 7.20522 16.8609 7.20692 16.8899 7.2084C16.9478 7.21137 17.0291 7.21591 17.1223 7.22208C17.3103 7.23452 17.5416 7.25298 17.7268 7.27872C17.9037 7.30332 18.1488 7.36379 18.3577 7.4213C18.4604 7.44958 18.5512 7.47691 18.6165 7.49649C18.6489 7.50623 18.6748 7.51442 18.6926 7.51993C18.7014 7.52265 18.7086 7.52436 18.7131 7.52579C18.7152 7.52645 18.7169 7.52739 18.718 7.52774H18.72L18.969 7.60684L19.0364 7.35489L19.8323 4.40567L19.8684 4.27383L19.7756 4.17227L18.6077 2.89297L18.4592 2.72989L18.2786 2.85782Z" fill="white" stroke="white" stroke-width="0.5"/>
</mask>
<g mask="url(#mask3_270_67481)">
<path fill-rule="evenodd" clip-rule="evenodd" d="M18.3978 6.46649C18.3978 6.46649 18.6918 6.30287 18.7342 6.02699C18.7766 5.7511 19.2313 5.41131 19.0039 5.45175C18.7766 5.49219 18.9066 5.52378 18.5774 5.45175C18.2481 5.37972 17.822 5.33207 17.822 5.12969C17.822 4.9273 18.0338 4.76667 17.8607 4.76667C17.6875 4.76667 17.3182 4.57511 17.3923 4.72152C17.4665 4.86794 17.2217 4.70239 17.3441 5.00635C17.4665 5.31031 17.3182 5.61653 17.3923 5.69711C17.4665 5.77769 17.3441 6.17288 17.3441 6.17288C17.3441 6.17288 17.3891 6.31966 17.4677 6.09981C17.5464 5.87996 17.7185 5.72586 17.6325 5.91284C17.5464 6.09981 17.4366 6.54454 17.5345 6.46649C17.6325 6.38845 17.7298 6.17263 17.7298 6.09981C17.7298 6.02699 17.9769 5.74112 17.9769 5.957C17.9769 6.17288 17.7444 6.34288 17.8607 6.34288C17.9769 6.34288 18.0421 6.38876 18.1152 6.17288C18.1882 5.957 18.3657 5.81419 18.4385 5.957C18.5113 6.09981 18.4952 6.09218 18.3978 6.27934C18.3005 6.46649 18.3978 6.46649 18.3978 6.46649Z" fill="#FECA00"/>
<path fill-rule="evenodd" clip-rule="evenodd" d="M17.7072 4.86652L17.5978 4.68341C17.7942 4.56239 17.9745 4.53015 18.1328 4.59762C18.2049 4.6283 18.2591 4.66324 18.4005 4.76269L18.419 4.77567C18.5662 4.87892 18.6441 4.92098 18.6921 4.92098V5.13517C18.5823 5.13517 18.4873 5.08391 18.2991 4.95191L18.2804 4.93876C18.1531 4.84925 18.104 4.8176 18.0512 4.79513C17.9636 4.7578 17.8509 4.77796 17.7072 4.86652ZM17.3609 6.26346C17.423 6.26346 17.4734 6.21371 17.4734 6.15235C17.4734 6.09098 17.423 6.04123 17.3609 6.04123C17.2988 6.04123 17.2484 6.09098 17.2484 6.15235C17.2484 6.21371 17.2988 6.26346 17.3609 6.26346ZM17.6844 6.36654C17.6844 6.4279 17.634 6.47765 17.5719 6.47765C17.5097 6.47765 17.4594 6.4279 17.4594 6.36654C17.4594 6.30517 17.5097 6.25542 17.5719 6.25542C17.634 6.25542 17.6844 6.30517 17.6844 6.36654ZM17.9508 6.46939C18.0129 6.46939 18.0633 6.41964 18.0633 6.35827C18.0633 6.29691 18.0129 6.24716 17.9508 6.24716C17.8886 6.24716 17.8383 6.29691 17.8383 6.35827C17.8383 6.41964 17.8886 6.46939 17.9508 6.46939ZM18.4157 6.53609C18.4157 6.59746 18.3654 6.6472 18.3032 6.6472C18.2411 6.6472 18.1907 6.59746 18.1907 6.53609C18.1907 6.47473 18.2411 6.42498 18.3032 6.42498C18.3654 6.42498 18.4157 6.47473 18.4157 6.53609Z" fill="#C51918"/>
</g>
<path d="M21.335 3.45078L19.6768 4.07089L19.5576 4.11484L19.5234 4.23593L18.6777 7.21249L18.6045 7.46738L18.8633 7.52499H18.8643C18.8649 7.52514 18.8659 7.52567 18.8672 7.52597C18.8702 7.52666 18.8756 7.52746 18.8818 7.5289C18.8942 7.53177 18.9127 7.53587 18.9365 7.5416C18.9849 7.55324 19.0557 7.57134 19.1436 7.59433C19.3196 7.64041 19.5643 7.70849 19.8369 7.79648C20.1002 7.88144 20.392 8.00793 20.6211 8.11581C20.7347 8.1693 20.8314 8.21797 20.8994 8.25253C20.9333 8.26973 20.9604 8.28312 20.9785 8.29257C20.9875 8.29727 20.9945 8.30092 20.999 8.30331C21.0013 8.30449 21.0028 8.30568 21.0039 8.30624L21.0049 8.30722L21.2441 8.43515L21.3525 8.18613L22.5908 5.33261L22.6426 5.21445L22.5752 5.10312L21.6357 3.55527L21.5283 3.37851L21.335 3.45078Z" fill="#56C6F5" stroke="white" stroke-width="0.5"/>
<mask id="mask4_270_67481" style="mask-type:luminance" maskUnits="userSpaceOnUse" x="18" y="3" width="5" height="6">
<path d="M21.335 3.45078L19.6768 4.07089L19.5576 4.11484L19.5234 4.23593L18.6777 7.21249L18.6045 7.46738L18.8633 7.52499H18.8643C18.8649 7.52514 18.8659 7.52567 18.8672 7.52597C18.8702 7.52666 18.8756 7.52746 18.8818 7.5289C18.8942 7.53177 18.9127 7.53587 18.9365 7.5416C18.9849 7.55324 19.0557 7.57134 19.1436 7.59433C19.3196 7.64041 19.5643 7.70849 19.8369 7.79648C20.1002 7.88144 20.392 8.00793 20.6211 8.11581C20.7347 8.1693 20.8314 8.21797 20.8994 8.25253C20.9333 8.26973 20.9604 8.28312 20.9785 8.29257C20.9875 8.29727 20.9945 8.30092 20.999 8.30331C21.0013 8.30449 21.0028 8.30568 21.0039 8.30624L21.0049 8.30722L21.2441 8.43515L21.3525 8.18613L22.5908 5.33261L22.6426 5.21445L22.5752 5.10312L21.6357 3.55527L21.5283 3.37851L21.335 3.45078Z" fill="white" stroke="white" stroke-width="0.5"/>
</mask>
<g mask="url(#mask4_270_67481)">
<path fill-rule="evenodd" clip-rule="evenodd" d="M21.1274 5.08913L20.9854 5.24793C20.954 5.28307 20.8958 5.26416 20.8911 5.21727L20.8696 5.00536L20.6611 4.96183C20.615 4.9522 20.6022 4.89234 20.6405 4.86478L20.8132 4.7402L20.7467 4.53787C20.732 4.4931 20.7774 4.45216 20.8204 4.47148L21.0147 4.55881L21.1566 4.40001C21.188 4.36488 21.2462 4.38378 21.251 4.43067L21.2725 4.64258L21.481 4.68612C21.5271 4.69575 21.5399 4.7556 21.5016 4.78317L21.3289 4.90774L21.3954 5.11008C21.4101 5.15485 21.3647 5.19579 21.3217 5.17647L21.1274 5.08913Z" fill="#FECA00"/>
<path d="M18.9951 6.48763L19.2075 5.65846C20.1483 5.90696 21.129 6.22545 21.8484 6.53342L21.5207 7.3229C20.841 7.03196 19.8985 6.72625 18.9951 6.48763Z" fill="#E31D1C"/>
<path d="M19.2831 5.72198L19.3332 5.51392C20.2351 5.73773 21.1937 6.09486 21.8903 6.42748L21.8005 6.62131C21.1173 6.29508 20.1719 5.94256 19.2831 5.72198Z" fill="white"/>
<path d="M19.0157 6.57654L19.0658 6.36847C19.9677 6.59229 20.8013 6.89598 21.4979 7.22861L21.4082 7.42243C20.725 7.0962 19.9046 6.79711 19.0157 6.57654Z" fill="white"/>
<path d="M19.4229 6.17499L19.616 6.08778C19.6973 6.2781 19.7977 6.32002 19.9656 6.23845C20.3621 6.04579 21.3457 6.31503 21.3457 6.67806C21.3457 6.81969 21.2636 6.90556 21.1383 6.90058C21.0676 6.89777 20.9921 6.86982 20.8813 6.81507C20.8679 6.80842 20.859 6.80398 20.8372 6.7929C20.7148 6.73043 20.7055 6.72588 20.6729 6.71413L20.7427 6.50948C20.7878 6.52576 20.7949 6.52924 20.931 6.59862C20.952 6.60929 20.9601 6.61341 20.9727 6.61962C21.0576 6.66159 21.1144 6.6826 21.1464 6.68388C21.1494 6.68399 21.1348 6.6993 21.1348 6.67806C21.1348 6.51833 20.3342 6.2992 20.0557 6.43453C19.7779 6.56948 19.5509 6.47468 19.4229 6.17499Z" fill="#272727"/>
</g>
</g>
</g>
<defs>
<clipPath id="clip0_270_67481">
<rect width="32" height="24" fill="white"/>
</clipPath>
</defs>
</svg>
