<?xml version="1.0" encoding="utf-8"?>
<!DOCTYPE svg PUBLIC "-//W3C//DTD SVG 20010904//EN" "http://www.w3.org/TR/2001/REC-SVG-20010904/DTD/svg10.dtd">
<svg version="1.0" xmlns="http://www.w3.org/2000/svg" width="514pt" height="514pt" viewBox="0 0 514 514" preserveAspectRatio="xMidYMid meet">
<g fill="#FFF047FE">
<path d="M 55.00 468.69 C 55.00 468.46 71.20 433.25 90.99 390.44 C 110.79 347.63 127.25 311.80 127.56 310.80 C 128.11 309.08 126.12 309.00 84.97 309.00 C 47.73 309.00 41.35 308.78 38.48 307.42 C 34.51 305.54 31.53 300.01 32.47 296.28 C 32.82 294.87 75.95 228.53 128.30 148.86 C 205.75 31.01 224.09 3.72 226.65 2.50 C 229.39 1.20 243.48 1.00 333.90 1.00 C 391.16 1.00 438.00 1.23 438.00 1.50 C 438.00 1.78 394.91 51.40 342.25 111.76 C 289.59 172.13 245.26 223.01 243.75 224.83 C 239.93 229.44 239.98 234.83 243.87 239.18 C 246.73 242.38 246.77 242.39 258.77 242.94 C 271.87 243.55 273.63 244.28 276.02 250.06 C 279.01 257.28 281.59 254.50 203.22 328.67 C 163.23 366.53 113.52 413.61 92.75 433.30 C 71.99 452.99 55.00 468.92 55.00 468.69Z"/></g>
<g fill="#FFE600FE">
<path d="M 47.50 512.05 C 46.40 511.59 44.44 510.08 43.15 508.69 C 39.22 504.46 39.89 500.74 47.50 484.34 L 54.40 469.50 L 165.17 364.67 C 284.71 251.55 279.06 257.39 276.02 250.06 C 273.63 244.28 271.87 243.55 258.77 242.94 C 246.77 242.39 246.73 242.38 243.87 239.18 C 239.63 234.43 239.90 229.58 244.75 223.63 C 246.81 221.10 291.25 170.00 343.50 110.08 L 438.50 1.13 L 455.78 1.06 C 475.17 0.99 478.82 1.82 481.43 6.87 C 483.49 10.85 483.41 13.83 481.13 17.50 C 480.11 19.15 446.12 60.55 405.59 109.50 L 331.90 198.50 L 366.38 199.00 C 399.41 199.48 400.98 199.59 403.68 201.60 C 406.82 203.93 408.64 209.32 407.63 213.32 C 407.17 215.18 389.81 230.41 346.74 266.75 C 118.00 459.76 56.79 511.13 54.49 512.00 C 51.43 513.17 50.23 513.17 47.50 512.05Z"/></g>
</svg>
